<svg width="16" height="16" viewBox="0 0 16 16" fill="white" xmlns="http://www.w3.org/2000/svg">
<path d="M11.85 8.275C12.7613 8.275 13.5 9.01373 13.5 9.925V10.475C13.5 12.6436 11.4545 14.875 8 14.875C4.54546 14.875 2.5 12.6436 2.5 10.475V9.925C2.5 9.01373 3.23873 8.275 4.15 8.275H11.85ZM11.85 9.375H4.15C3.84624 9.375 3.6 9.62124 3.6 9.925V10.475C3.6 12.0564 5.17537 13.775 8 13.775C10.8246 13.775 12.4 12.0564 12.4 10.475V9.925C12.4 9.62124 12.1538 9.375 11.85 9.375ZM8 1.125C9.67066 1.125 11.025 2.47934 11.025 4.15C11.025 5.82066 9.67066 7.175 8 7.175C6.32934 7.175 4.975 5.82066 4.975 4.15C4.975 2.47934 6.32934 1.125 8 1.125ZM8 2.225C6.93685 2.225 6.075 3.08685 6.075 4.15C6.075 5.21315 6.93685 6.075 8 6.075C9.06315 6.075 9.925 5.21315 9.925 4.15C9.925 3.08685 9.06315 2.225 8 2.225Z" fill="#8C8C8C"/>
</svg>
